<svg xmlns="http://www.w3.org/2000/svg" xmlns:xlink="http://www.w3.org/1999/xlink" width="1920" zoomAndPan="magnify" viewBox="0 0 1440 809.999993" height="1080" preserveAspectRatio="xMidYMid meet" version="1.0"><defs><clipPath id="1bd8ae20e5"><path d="M 609.21875 307.929688 L 830.46875 307.929688 L 830.46875 502.179688 L 609.21875 502.179688 Z M 609.21875 307.929688 " clip-rule="nonzero"/></clipPath></defs><g clip-path="url(#1bd8ae20e5)"><path fill="#000000" d="M 699.859375 418.070312 L 739.832031 418.070312 C 757.820312 418.070312 772.476562 432.757812 772.476562 450.78125 L 772.476562 502.179688 L 667.214844 502.179688 L 667.214844 450.78125 C 667.214844 432.757812 681.871094 418.070312 699.859375 418.070312 Z M 661.886719 307.929688 C 677.875 307.929688 691.199219 321.28125 691.199219 337.300781 C 691.199219 353.320312 677.875 366.003906 661.886719 366.003906 C 645.894531 366.003906 633.238281 353.320312 633.238281 337.300781 C 633.238281 321.28125 645.894531 307.929688 661.886719 307.929688 Z M 757.820312 379.355469 L 797.789062 379.355469 C 815.777344 379.355469 830.433594 394.039062 830.433594 412.0625 L 830.433594 463.460938 L 781.136719 463.460938 L 781.136719 449.445312 C 781.136719 428.75 763.8125 411.394531 743.160156 411.394531 L 731.171875 411.394531 C 745.160156 406.722656 755.152344 394.707031 757.152344 379.355469 Z M 777.804688 307.929688 C 793.792969 307.929688 806.453125 321.28125 806.453125 337.300781 C 806.453125 353.320312 793.792969 366.003906 777.804688 366.003906 C 761.816406 366.003906 748.492188 353.320312 748.492188 337.300781 C 748.492188 321.28125 761.816406 307.929688 777.804688 307.929688 Z M 641.898438 379.355469 L 682.539062 379.355469 C 683.871094 394.707031 694.527344 406.722656 708.519531 411.394531 L 696.527344 411.394531 C 675.875 411.394531 658.554688 428.75 658.554688 449.445312 L 658.554688 463.460938 L 609.253906 463.460938 L 609.253906 412.0625 C 609.253906 394.039062 623.910156 379.355469 641.898438 379.355469 Z M 719.84375 346.644531 C 735.832031 346.644531 749.15625 359.996094 749.15625 376.015625 C 749.15625 392.035156 735.832031 404.71875 719.84375 404.71875 C 703.855469 404.71875 690.53125 392.035156 690.53125 376.015625 C 690.53125 359.996094 703.855469 346.644531 719.84375 346.644531 Z M 719.84375 346.644531 " fill-opacity="1" fill-rule="evenodd"/></g></svg>